<svg width="96" height="27" viewBox="0 0 96 27" fill="none" xmlns="http://www.w3.org/2000/svg">
<path d="M19.6971 26.1569V11.1511L14.3156 22.0773H11.15L5.76843 11.1511V26.1569H0V0.969855H6.26086L12.7328 14.131L19.2398 0.969855H25.4655V26.1569H19.6971Z" fill="#C6CBCD"/>
<path d="M38.2884 26.5117C36.178 26.5117 34.3841 26.0623 32.9069 25.1636C31.453 24.265 30.3392 23.0825 29.5654 21.6162C28.7916 20.1499 28.4047 18.5653 28.4047 16.8626C28.4047 15.1361 28.7916 13.5397 29.5654 12.0735C30.3392 10.6072 31.4648 9.42467 32.942 8.52598C34.4193 7.62728 36.2014 7.17794 38.2884 7.17794C40.3753 7.17794 42.1575 7.62728 43.6347 8.52598C45.112 9.42467 46.2376 10.6072 47.0114 12.0735C47.7852 13.5397 48.1721 15.1361 48.1721 16.8626C48.1721 18.5653 47.7852 20.1499 47.0114 21.6162C46.2376 23.0825 45.112 24.265 43.6347 25.1636C42.1575 26.0623 40.3753 26.5117 38.2884 26.5117ZM34.1731 16.8626C34.1731 18.3052 34.56 19.4759 35.3338 20.3746C36.1311 21.2732 37.1159 21.7226 38.2884 21.7226C39.4374 21.7226 40.3988 21.2732 41.1726 20.3746C41.9699 19.4759 42.3685 18.3052 42.3685 16.8626C42.3685 15.4199 41.9699 14.2492 41.1726 13.3505C40.3988 12.4519 39.4374 12.0025 38.2884 12.0025C37.1159 12.0025 36.1311 12.4519 35.3338 13.3505C34.56 14.2492 34.1731 15.4199 34.1731 16.8626Z" fill="#C6CBCD"/>
<path d="M62.0076 26.3343C60.3662 26.3343 58.8185 26.0269 57.3647 25.412C55.9343 24.7734 54.6564 23.8866 53.5308 22.7514C52.4287 21.5925 51.5611 20.2327 50.928 18.6718C50.3183 17.0872 50.0135 15.3253 50.0135 13.386C50.0135 11.6359 50.3183 10.0041 50.928 8.4905C51.5611 6.97691 52.4404 5.6407 53.566 4.48186C54.715 3.32301 56.0398 2.42432 57.5406 1.78577C59.0647 1.12358 60.7062 0.79248 62.4648 0.79248C64.7628 0.79248 66.7794 1.28913 68.5147 2.28242C70.2733 3.27571 71.5865 4.61193 72.4541 6.29107L68.1629 9.55475C67.6002 8.44321 66.7794 7.56816 65.7008 6.92962C64.6221 6.29107 63.4731 5.9718 62.2538 5.9718C60.9876 5.9718 59.8737 6.31472 58.9123 7.00056C57.9509 7.66276 57.2006 8.57328 56.6612 9.73212C56.1219 10.891 55.8522 12.1799 55.8522 13.5989C55.8522 15.0415 56.1336 16.3423 56.6964 17.5011C57.2592 18.6363 58.033 19.535 59.0178 20.1972C60.0261 20.8357 61.1869 21.155 62.5 21.155C64.7511 21.155 66.7794 20.1144 68.585 18.0332V17.2173H63.7311V12.9958H73.3686V26.1569H68.585V23.6737C66.6856 25.4474 64.4932 26.3343 62.0076 26.3343Z" fill="#C6CBCD"/>
<path d="M85.5182 26.5117C83.4078 26.5117 81.614 26.0623 80.1367 25.1636C78.6829 24.265 77.569 23.0825 76.7952 21.6162C76.0214 20.1499 75.6345 18.5653 75.6345 16.8626C75.6345 15.1361 76.0214 13.5397 76.7952 12.0735C77.569 10.6072 78.6946 9.42467 80.1719 8.52598C81.6492 7.62728 83.4313 7.17794 85.5182 7.17794C87.6052 7.17794 89.3873 7.62728 90.8646 8.52598C92.3419 9.42467 93.4674 10.6072 94.2412 12.0735C95.015 13.5397 95.4019 15.1361 95.4019 16.8626C95.4019 18.5653 95.015 20.1499 94.2412 21.6162C93.4674 23.0825 92.3419 24.265 90.8646 25.1636C89.3873 26.0623 87.6052 26.5117 85.5182 26.5117ZM81.4029 16.8626C81.4029 18.3052 81.7898 19.4759 82.5637 20.3746C83.3609 21.2732 84.3458 21.7226 85.5182 21.7226C86.6672 21.7226 87.6286 21.2732 88.4024 20.3746C89.1997 19.4759 89.5983 18.3052 89.5983 16.8626C89.5983 15.4199 89.1997 14.2492 88.4024 13.3505C87.6286 12.4519 86.6672 12.0025 85.5182 12.0025C84.3458 12.0025 83.3609 12.4519 82.5637 13.3505C81.7898 14.2492 81.4029 15.4199 81.4029 16.8626Z" fill="#C6CBCD"/>
</svg>
