<svg width="55" height="15" viewBox="0 0 55 15" fill="none" xmlns="http://www.w3.org/2000/svg">
<path d="M11.2 14.6335V6.1735L8.14 12.3335H6.34L3.28 6.1735V14.6335H0V0.433496H3.56L7.24 7.8535L10.94 0.433496H14.48V14.6335H11.2Z" fill="white"/>
<path d="M21.7712 14.8335C20.5712 14.8335 19.5513 14.5802 18.7113 14.0735C17.8846 13.5668 17.2513 12.9002 16.8113 12.0735C16.3713 11.2468 16.1513 10.3535 16.1513 9.3935C16.1513 8.42016 16.3713 7.52016 16.8113 6.6935C17.2513 5.86683 17.8912 5.20016 18.7312 4.6935C19.5712 4.18683 20.5846 3.9335 21.7712 3.9335C22.9579 3.9335 23.9713 4.18683 24.8113 4.6935C25.6513 5.20016 26.2913 5.86683 26.7313 6.6935C27.1713 7.52016 27.3913 8.42016 27.3913 9.3935C27.3913 10.3535 27.1713 11.2468 26.7313 12.0735C26.2913 12.9002 25.6513 13.5668 24.8113 14.0735C23.9713 14.5802 22.9579 14.8335 21.7712 14.8335ZM19.4313 9.3935C19.4313 10.2068 19.6513 10.8668 20.0913 11.3735C20.5446 11.8802 21.1046 12.1335 21.7712 12.1335C22.4246 12.1335 22.9712 11.8802 23.4112 11.3735C23.8646 10.8668 24.0913 10.2068 24.0913 9.3935C24.0913 8.58016 23.8646 7.92016 23.4112 7.4135C22.9712 6.90683 22.4246 6.6535 21.7712 6.6535C21.1046 6.6535 20.5446 6.90683 20.0913 7.4135C19.6513 7.92016 19.4313 8.58016 19.4313 9.3935Z" fill="white"/>
<path d="M35.2583 14.7335C34.325 14.7335 33.445 14.5602 32.6183 14.2135C31.8049 13.8535 31.0783 13.3535 30.4383 12.7135C29.8116 12.0602 29.3183 11.2935 28.9583 10.4135C28.6116 9.52016 28.4383 8.52683 28.4383 7.4335C28.4383 6.44683 28.6116 5.52683 28.9583 4.6735C29.3183 3.82016 29.8183 3.06683 30.4583 2.4135C31.1116 1.76016 31.865 1.2535 32.7183 0.893496C33.5849 0.520162 34.5183 0.333496 35.5183 0.333496C36.8249 0.333496 37.9716 0.613497 38.9583 1.1735C39.9583 1.7335 40.7049 2.48683 41.1983 3.4335L38.7583 5.2735C38.4383 4.64683 37.9716 4.1535 37.3583 3.7935C36.745 3.4335 36.0916 3.2535 35.3983 3.2535C34.6783 3.2535 34.0449 3.44683 33.4983 3.8335C32.9516 4.20683 32.5249 4.72016 32.2183 5.3735C31.9116 6.02683 31.7583 6.7535 31.7583 7.5535C31.7583 8.36683 31.9183 9.10016 32.2383 9.7535C32.5583 10.3935 32.9983 10.9002 33.5583 11.2735C34.1316 11.6335 34.7916 11.8135 35.5383 11.8135C36.8183 11.8135 37.9716 11.2268 38.9983 10.0535V9.5935H36.2383V7.2135H41.7183V14.6335H38.9983V13.2335C37.9183 14.2335 36.6716 14.7335 35.2583 14.7335Z" fill="white"/>
<path d="M48.6267 14.8335C47.4267 14.8335 46.4067 14.5802 45.5667 14.0735C44.7401 13.5668 44.1067 12.9002 43.6667 12.0735C43.2267 11.2468 43.0067 10.3535 43.0067 9.3935C43.0067 8.42016 43.2267 7.52016 43.6667 6.6935C44.1067 5.86683 44.7467 5.20016 45.5867 4.6935C46.4267 4.18683 47.4401 3.9335 48.6267 3.9335C49.8134 3.9335 50.8267 4.18683 51.6667 4.6935C52.5067 5.20016 53.1467 5.86683 53.5867 6.6935C54.0267 7.52016 54.2467 8.42016 54.2467 9.3935C54.2467 10.3535 54.0267 11.2468 53.5867 12.0735C53.1467 12.9002 52.5067 13.5668 51.6667 14.0735C50.8267 14.5802 49.8134 14.8335 48.6267 14.8335ZM46.2867 9.3935C46.2867 10.2068 46.5067 10.8668 46.9467 11.3735C47.4001 11.8802 47.9601 12.1335 48.6267 12.1335C49.2801 12.1335 49.8267 11.8802 50.2667 11.3735C50.7201 10.8668 50.9467 10.2068 50.9467 9.3935C50.9467 8.58016 50.7201 7.92016 50.2667 7.4135C49.8267 6.90683 49.2801 6.6535 48.6267 6.6535C47.9601 6.6535 47.4001 6.90683 46.9467 7.4135C46.5067 7.92016 46.2867 8.58016 46.2867 9.3935Z" fill="white"/>
</svg>
